<svg width="41" height="60" viewBox="0 0 41 60" fill="none" xmlns="http://www.w3.org/2000/svg"><path d="M33.102 24.269c0 8.028-6.41 14.563-14.316 14.563-7.907 0-14.316-6.521-14.316-14.563 0-8.042 6.41-14.559 14.316-14.559 7.907 0 14.316 6.517 14.316 14.559z" fill="#C4C4C4"/><path d="M20.284 52.007l10.79-17.734-4.493-5.767 1.903-3.698 8.835 2.4 1.264 2.172-1.062 3.528 1.114 16.95-12.896 8.679-5.455-6.53z" fill="#fff"/><path d="M7.155 8.238c0-1.449.557-2.839 1.548-3.863a5.202 5.202 0 0 1 3.739-1.6H25.13c1.402 0 2.746.575 3.738 1.6a5.558 5.558 0 0 1 1.548 3.863v37.15a5.561 5.561 0 0 1-1.55 3.86 5.206 5.206 0 0 1-3.736 1.6H12.44a5.206 5.206 0 0 1-3.736-1.602 5.562 5.562 0 0 1-1.55-3.862V8.238z" fill="#fff"/><path fill-rule="evenodd" clip-rule="evenodd" d="M12.425 0h12.723a7.821 7.821 0 0 1 5.62 2.402 8.357 8.357 0 0 1 2.334 5.805v37.208a8.456 8.456 0 0 1-.607 3.144 8.239 8.239 0 0 1-1.725 2.664 7.937 7.937 0 0 1-2.58 1.78 7.725 7.725 0 0 1-3.042.623H12.425a7.726 7.726 0 0 1-3.043-.623 7.937 7.937 0 0 1-2.58-1.78 8.239 8.239 0 0 1-1.725-2.664 8.454 8.454 0 0 1-.607-3.144V8.207a8.357 8.357 0 0 1 2.333-5.805A7.821 7.821 0 0 1 12.425 0zm0 2.734a5.214 5.214 0 0 0-3.747 1.603 5.571 5.571 0 0 0-1.553 3.87v37.208c0 .719.137 1.43.403 2.095a5.487 5.487 0 0 0 1.15 1.776 5.287 5.287 0 0 0 1.719 1.186 5.146 5.146 0 0 0 2.027.416h12.724c.696 0 1.385-.14 2.028-.416a5.287 5.287 0 0 0 1.72-1.186 5.487 5.487 0 0 0 1.148-1.776 5.632 5.632 0 0 0 .404-2.095V8.207a5.572 5.572 0 0 0-1.554-3.87 5.214 5.214 0 0 0-3.746-1.603H12.425z" fill="#303030"/><path fill-rule="evenodd" clip-rule="evenodd" d="M4.103 22.052a1.931 1.931 0 0 1-.751-.204 1.989 1.989 0 0 1-.618-.486 2.065 2.065 0 0 1-.39-.695 2.111 2.111 0 0 1-.1-.796c.059-.545.325-1.044.739-1.387a1.966 1.966 0 0 1 1.47-.447l1.726.148c.261.015.517.084.752.202.235.117.445.282.618.485.173.202.305.438.39.694.084.255.118.526.1.795a2.102 2.102 0 0 1-.74 1.386 1.97 1.97 0 0 1-1.47.447l-1.726-.142zm0 8.082a1.93 1.93 0 0 1-.751-.204 1.99 1.99 0 0 1-.618-.486 2.064 2.064 0 0 1-.39-.695 2.111 2.111 0 0 1-.1-.796c.06-.545.326-1.043.74-1.386a1.97 1.97 0 0 1 1.469-.448l1.726.148c.261.015.517.084.752.201.235.119.445.284.618.486s.305.438.39.694c.084.256.118.526.1.795a2.107 2.107 0 0 1-.74 1.387 1.975 1.975 0 0 1-1.47.45l-1.726-.146zm-1.86 5.9c-.017.27.017.541.101.797s.217.492.39.695c.173.202.383.368.618.486.235.119.49.188.751.204l1.727.147a1.975 1.975 0 0 0 1.47-.45c.413-.344.679-.843.74-1.388.018-.27-.016-.54-.1-.795a2.06 2.06 0 0 0-.388-.695 1.985 1.985 0 0 0-.617-.487 1.925 1.925 0 0 0-.751-.204l-1.727-.147a1.97 1.97 0 0 0-1.473.447 2.102 2.102 0 0 0-.74 1.39z" fill="#fff"/><path fill-rule="evenodd" clip-rule="evenodd" d="M3.076 24.032a4.096 4.096 0 0 1-2.41-1.79 4.34 4.34 0 0 1-.604-3.004 4.251 4.251 0 0 1 1.524-2.633 3.995 3.995 0 0 1 2.845-.874l1.675.152a4.028 4.028 0 0 1 2.549 1.224 4.282 4.282 0 0 1 1.179 2.637 4.324 4.324 0 0 1-.75 2.8 4.082 4.082 0 0 1-2.322 1.635c.881.23 1.663.759 2.222 1.5.558.742.861 1.655.861 2.595 0 .94-.303 1.852-.861 2.594a4.079 4.079 0 0 1-2.222 1.5 4.09 4.09 0 0 1 2.427 1.784c.563.889.78 1.965.61 3.012a4.246 4.246 0 0 1-1.533 2.64 3.99 3.99 0 0 1-2.86.86l-1.674-.147a4.033 4.033 0 0 1-2.543-1.23 4.287 4.287 0 0 1-1.175-2.634 4.329 4.329 0 0 1 .746-2.797 4.088 4.088 0 0 1 2.316-1.64A4.08 4.08 0 0 1 .86 30.716a4.316 4.316 0 0 1-.859-2.59c0-.939.303-1.85.86-2.591a4.08 4.08 0 0 1 2.215-1.502zm-.958-4.268c-.022.266.006.535.084.79.078.256.204.493.371.698.167.205.371.374.601.498.23.123.481.198.74.221l1.674.148a1.932 1.932 0 0 0 1.44-.473c.4-.348.65-.846.694-1.385a2.085 2.085 0 0 0-.456-1.488 1.953 1.953 0 0 0-1.341-.718l-1.675-.147a1.906 1.906 0 0 0-.764.087 1.95 1.95 0 0 0-.674.383 2.024 2.024 0 0 0-.48.622 2.085 2.085 0 0 0-.214.764zm0 8.184c-.026.269 0 .54.076.798.077.259.202.499.37.706.167.208.372.379.604.504.232.124.485.2.746.222l1.674.148a1.931 1.931 0 0 0 1.44-.473c.4-.348.65-.846.694-1.385a2.085 2.085 0 0 0-.456-1.488 1.954 1.954 0 0 0-1.341-.718l-1.675-.17a1.91 1.91 0 0 0-.764.088c-.247.08-.476.21-.674.383a2.024 2.024 0 0 0-.48.621 2.086 2.086 0 0 0-.214.764zm1.796 10.41a1.954 1.954 0 0 1-1.341-.718 2.085 2.085 0 0 1-.457-1.487 2.062 2.062 0 0 1 .695-1.386c.4-.348.918-.518 1.44-.472l1.674.147c.48.093.91.367 1.206.768a2.091 2.091 0 0 1-.212 2.724 1.944 1.944 0 0 1-1.31.558l-1.695-.133z" fill="#333"/><path d="M7.155 8.238c0-1.449.557-2.839 1.548-3.863a5.202 5.202 0 0 1 3.739-1.6H25.13c1.402 0 2.746.575 3.738 1.6a5.558 5.558 0 0 1 1.548 3.863v37.15a5.561 5.561 0 0 1-1.55 3.86 5.206 5.206 0 0 1-3.736 1.6H12.44a5.206 5.206 0 0 1-3.736-1.602 5.562 5.562 0 0 1-1.55-3.862V8.238z" fill="#fff"/><path fill-rule="evenodd" clip-rule="evenodd" d="M12.425 0h12.723a7.821 7.821 0 0 1 5.62 2.402 8.357 8.357 0 0 1 2.334 5.805v37.208a8.456 8.456 0 0 1-.607 3.144 8.239 8.239 0 0 1-1.725 2.664 7.937 7.937 0 0 1-2.58 1.78 7.725 7.725 0 0 1-3.042.623H12.425a7.726 7.726 0 0 1-3.043-.623 7.937 7.937 0 0 1-2.58-1.78 8.239 8.239 0 0 1-1.725-2.664 8.454 8.454 0 0 1-.607-3.144V8.207a8.357 8.357 0 0 1 2.333-5.805A7.821 7.821 0 0 1 12.425 0zm0 2.734a5.214 5.214 0 0 0-3.747 1.603 5.571 5.571 0 0 0-1.553 3.87v37.208c0 .719.137 1.43.403 2.095a5.487 5.487 0 0 0 1.15 1.776 5.287 5.287 0 0 0 1.719 1.186 5.146 5.146 0 0 0 2.027.416h12.724c.696 0 1.385-.14 2.028-.416a5.287 5.287 0 0 0 1.72-1.186 5.487 5.487 0 0 0 1.148-1.776 5.632 5.632 0 0 0 .404-2.095V8.207a5.572 5.572 0 0 0-1.554-3.87 5.214 5.214 0 0 0-3.746-1.603H12.425z" fill="#333"/><path d="M19.973 25.022V28.1H17.53V25.03h-2.766v-2.676h2.788v-3.05h2.417v3.05h2.81v2.676l-2.806-.009zM24.634 20.665V17.76H21.01v-2.15h5.779v5.054h-2.154zM16.058 17.765h-3.176v2.904h-2.158v-5.058h5.334v2.154zM20.996 31.77v-2.15h3.634v-2.412h2.158v4.563h-5.792zM12.947 29.608h2.917c.177 0 .246.07.246.232v1.926h-5.386v-4.585h2.158v2.386l.065.04z" fill="#FE3D00"/><path d="M12.947 29.608l-.04-.04.04.04z" fill="#FECEBE"/><path d="M30.163 32.114a4.44 4.44 0 0 1-2.636-2.169 4.694 4.694 0 0 1-.385-3.46 1.51 1.51 0 0 1 .678-.904 1.426 1.426 0 0 1 1.096-.157l6.08 1.784c.75.22 1.385.739 1.765 1.442.38.703.475 1.534.264 2.309l-.073.259a2.76 2.76 0 0 1-1.263 1.657 2.608 2.608 0 0 1-2.026.26l-2.59-.758-.91-.263zM12.515 1.851h12.982L24.134 4.06c-.2.317-.473.577-.795.756-.322.18-.683.272-1.048.27h-6.565a2.103 2.103 0 0 1-1.047-.268 2.187 2.187 0 0 1-.791-.758L12.515 1.85z" fill="#fff"/><path fill-rule="evenodd" clip-rule="evenodd" d="M12.515 1.851l1.373 2.208c.197.318.47.579.79.758.322.18.683.272 1.048.268h6.565c.365.002.726-.09 1.048-.27.322-.179.595-.439.795-.756l1.363-2.208H12.515z" fill="#333"/><path d="M22.873 53.613c-.518-.08-4.096-.08-4.096-.08 1.576 2.426 2.767 3.122 4.338 5.53.194.3.358.625.535.937h.108l2.59-1.86c-1.317-2.043-2.18-2.52-3.475-4.527zM40.685 47.547a13.255 13.255 0 0 1-2.158-7.913c.065-1.717.1-3.434.186-5.147.013-.356.117-.702.302-1.004a5.425 5.425 0 0 0 .91-2.302 5.496 5.496 0 0 0-.2-2.479 5.355 5.355 0 0 0-1.267-2.114 5.124 5.124 0 0 0-2.059-1.29 181.472 181.472 0 0 0-6.292-1.832 3.441 3.441 0 0 0-2.723.392c-.406.25-.76.58-1.04.972a3.726 3.726 0 0 0-.596 1.312 6.937 6.937 0 0 0 .645 5.081 6.558 6.558 0 0 0 3.917 3.144l2.313.691c.135.438.296.867.483 1.285.228-.95.356-1.922.38-2.9a.533.533 0 0 0-.12-.372.5.5 0 0 0-.337-.18 42.248 42.248 0 0 1-2.219-.647 4.437 4.437 0 0 1-2.556-2.068 4.69 4.69 0 0 1-.495-3.316c.028-.227.104-.444.224-.636.12-.192.28-.354.469-.474a1.448 1.448 0 0 1 1.27-.139 387.52 387.52 0 0 1 6.043 1.784c.53.162 1.035.399 1.502.705.431.446 1.156.95.893 2.31-.431 2.315-1.208 2.32-1.342 3.702-.134 1.383-.09 1.07-.134 1.57-.073.95-.125 1.923-.194 3.234-.108 2.137-.298 4.264.078 6.4.297 1.696.733 3.31 1.942 4.648L41 48.038l-.315-.491z" fill="#333"/></svg>